<svg xmlns="http://www.w3.org/2000/svg" viewBox="0 0 32 32"><defs><style>.cls-1{fill:#001837;}</style></defs><title>Baby</title><g id="Icon"><path class="cls-1" d="M26.5,23a3.45,3.45,0,0,0-1.65.43l-6-6A9.5,9.5,0,0,0,4.78,4.78a9.5,9.5,0,0,0,12.69,14.1l6,6A3.45,3.45,0,0,0,23,26.5,3.5,3.5,0,1,0,26.5,23ZM6.2,6.2a7.51,7.51,0,0,1,7.52-1.86L4.33,13.72A7.51,7.51,0,0,1,6.2,6.2Zm-1,9.44L15.64,5.24a7.56,7.56,0,0,1,2.12,2.12L7.36,17.76a7.56,7.56,0,0,1-2.12-2.12Zm4,3,9.38-9.38a7.51,7.51,0,0,1-9.38,9.38ZM26.5,28A1.5,1.5,0,1,1,28,26.5,1.5,1.5,0,0,1,26.5,28Z"/></g></svg>