<svg viewBox="0 0 32 32" version="1.1" xmlns="http://www.w3.org/2000/svg" xmlns:xlink="http://www.w3.org/1999/xlink">
    <g id="Icons" stroke="none" stroke-width="1" fill="none" fill-rule="evenodd">
        <g id="Artboard-4" fill="#001837">
            <path d="M21.9998,2.0001 L21.9998,4.0001 L9.9998,4.0001 L9.9998,2.0001 L8.0008,2.0001 L8.0008,4.0001 L1.9998,4.0001 L1.9998,30.0001 L29.9998,30.0001 L29.9998,4.0001 L23.9998,4.0001 L23.9998,2.0001 L21.9998,2.0001 Z M23.9998,8.0001 L23.9998,6.0001 L27.9998,6.0001 L27.9998,10.0001 L3.9998,10.0001 L3.9998,6.0001 L8.0008,6.0001 L8.0008,8.0001 L9.9998,8.0001 L9.9998,6.0001 L21.9998,6.0001 L21.9998,8.0001 L23.9998,8.0001 Z M3.9998,28.0001 L3.9998,12.0001 L27.9998,12.0001 L27.9998,28.0001 L3.9998,28.0001 Z M8,18 L10,18 L10,16 L8,16 L8,18 Z M12,18 L14,18 L14,16 L12,16 L12,18 Z M16,18 L18,18 L18,16 L16,16 L16,18 Z M16,22 L18,22 L18,20 L16,20 L16,22 Z M8,22 L10,22 L10,20 L8,20 L8,22 Z M12,22 L14,22 L14,20 L12,20 L12,22 Z M20,18 L22,18 L22,16 L20,16 L20,18 Z" id="Combined-Shape"></path>
        </g>
    </g>
</svg>
