<svg xmlns="http://www.w3.org/2000/svg" viewBox="0 0 32 32"><defs><style>.cls-1{fill:#001837;}</style></defs><title>Chat</title><g id="Icon"><circle class="cls-1" cx="16" cy="13.98" r="1.5"/><circle class="cls-1" cx="21.02" cy="13.98" r="1.5"/><circle class="cls-1" cx="11" cy="13.98" r="1.5"/><path class="cls-1" d="M9.21,28.81A1.21,1.21,0,0,1,8,27.6V24H7a5,5,0,0,1-5-5V9A5,5,0,0,1,7,4H25a5,5,0,0,1,5,5V19a5,5,0,0,1-5,5H16.32L9.91,28.58A1.2,1.2,0,0,1,9.21,28.81ZM7,6A3,3,0,0,0,4,9V19a3,3,0,0,0,3,3h3v4.06L15.68,22H25a3,3,0,0,0,3-3V9a3,3,0,0,0-3-3Z"/></g></svg>