<svg xmlns="http://www.w3.org/2000/svg" viewBox="0 0 32 32"><defs><style>.cls-1{fill:#001837;}</style></defs><title>Condition</title><g id="Icon"><path class="cls-1" d="M29.53,7.3a5,5,0,0,0-1.66-3.59,5.12,5.12,0,0,0-7,.34L7.7,17.2a4.92,4.92,0,0,0-1.42,2.91,3.92,3.92,0,0,1-1,2.37L3.4,24.33A3.08,3.08,0,0,0,3,28.27a3,3,0,0,0,2.2,1.25h.24a3,3,0,0,0,2.12-.88l1.92-1.92a3.92,3.92,0,0,1,2.37-1,4.9,4.9,0,0,0,2.91-1.41L21,18h0l1.41-1.41h0L28.07,11A5,5,0,0,0,29.53,7.3ZM26.66,9.56l-2.12,2.12L21.71,8.85l-1.41,1.41,2.83,2.83L21,15.21l-2.83-2.83L16.76,13.8l2.83,2.83-2.12,2.12-2.83-2.83-1.41,1.41,2.83,2.83-2.7,2.7a2.93,2.93,0,0,1-1.74.84,6,6,0,0,0-3.55,1.61L6.15,27.23a1,1,0,0,1-1.53-.13,1.09,1.09,0,0,1,.19-1.36L6.66,23.9a5.94,5.94,0,0,0,1.61-3.55,2.93,2.93,0,0,1,.84-1.74L22.25,5.47a3.35,3.35,0,0,1,2.36-1,2.86,2.86,0,0,1,1.93.71,3,3,0,0,1,.12,4.35Z"/></g></svg>