<svg xmlns="http://www.w3.org/2000/svg" viewBox="0 0 8 8"><defs><style>.cls-1{fill:#001837;}</style></defs><title>Cost.extraSmall</title><g id="Icon"><path class="cls-1" d="M5.67,4.29a1.29,1.29,0,0,0-.37-.37,1.62,1.62,0,0,0-.43-.2l-.34-.09-.66-.17a2.43,2.43,0,0,1-.39-.13.43.43,0,0,1-.19-.15.38.38,0,0,1,0-.21.41.41,0,0,1,.06-.23.52.52,0,0,1,.15-.15.62.62,0,0,1,.21-.09l.23,0a1.64,1.64,0,0,1,.32,0,.78.78,0,0,1,.26.1.54.54,0,0,1,.19.2.77.77,0,0,1,.08.32h.92a1.33,1.33,0,0,0-.14-.64,1.24,1.24,0,0,0-.39-.43,1.63,1.63,0,0,0-.56-.25H4.5V1h-1v.79l-.14,0a1.62,1.62,0,0,0-.52.24,1.29,1.29,0,0,0-.37.41A1.13,1.13,0,0,0,2.32,3a1.05,1.05,0,0,0,.11.51,1.06,1.06,0,0,0,.29.35,1.61,1.61,0,0,0,.41.23,4.17,4.17,0,0,0,.47.15l.47.12a2.85,2.85,0,0,1,.41.13.89.89,0,0,1,.29.18A.38.38,0,0,1,4.9,5a.42.42,0,0,1-.08.27.59.59,0,0,1-.21.17,1,1,0,0,1-.27.08l-.27,0a1.43,1.43,0,0,1-.36,0,.9.9,0,0,1-.31-.14.68.68,0,0,1-.21-.25.79.79,0,0,1-.08-.37H2.18a1.43,1.43,0,0,0,.15.69,1.36,1.36,0,0,0,.41.48,1.74,1.74,0,0,0,.59.28l.17,0V7h1V6.2a2.7,2.7,0,0,0,.3,0,1.65,1.65,0,0,0,.56-.29,1.21,1.21,0,0,0,.34-.44,1.33,1.33,0,0,0,.12-.55A1.06,1.06,0,0,0,5.67,4.29Z"/></g></svg>