<svg xmlns="http://www.w3.org/2000/svg" viewBox="0 0 32 32"><defs><style>.cls-1{fill:#001837;}</style></defs><title>Cost</title><g id="Icon"><path class="cls-1" d="M23.58,18.77a4.5,4.5,0,0,0-1.15-1.55,6.77,6.77,0,0,0-1.69-1.07,14,14,0,0,0-2-.72L17,15V6.84a6.65,6.65,0,0,1,.83.19,5.35,5.35,0,0,1,1.75.92,4.71,4.71,0,0,1,1.23,1.51,5,5,0,0,1,.53,2.12h1.95a6.3,6.3,0,0,0-.62-2.86A6.13,6.13,0,0,0,21,6.66a7.06,7.06,0,0,0-2.41-1.24A9.65,9.65,0,0,0,17,5.09V2H15V5a7.74,7.74,0,0,0-2.81.61A6.28,6.28,0,0,0,10,7.19,5.06,5.06,0,0,0,9,9.14,6.91,6.91,0,0,0,8.67,11a5.1,5.1,0,0,0,.39,2.1,4.49,4.49,0,0,0,1,1.45,4.9,4.9,0,0,0,1.48.95,13.19,13.19,0,0,0,1.73.59l1.72.44V25.2c-.34,0-.68-.09-1-.17a5.82,5.82,0,0,1-2.13-.93,4.44,4.44,0,0,1-1.42-1.75A6.12,6.12,0,0,1,10,19.63H8A7.69,7.69,0,0,0,8.51,23a5.79,5.79,0,0,0,1.68,2.28,7.12,7.12,0,0,0,2.64,1.32,12,12,0,0,0,2.18.36V30h2V27a11,11,0,0,0,2.27-.32,7.79,7.79,0,0,0,2.16-.89,4.91,4.91,0,0,0,1.38-1.23,6.36,6.36,0,0,0,.77-1.35,4.91,4.91,0,0,0,.34-1.26A8.31,8.31,0,0,0,24,21,5.37,5.37,0,0,0,23.58,18.77Zm-9.87-4.62a7.37,7.37,0,0,1-1.19-.38,3.54,3.54,0,0,1-1-.62,2.71,2.71,0,0,1-.67-.93,3.15,3.15,0,0,1-.24-1.29,4.15,4.15,0,0,1,.43-2,3.64,3.64,0,0,1,1.13-1.29,4.76,4.76,0,0,1,1.63-.71A8.08,8.08,0,0,1,15,6.76v7.72ZM21.51,23a4.56,4.56,0,0,1-1.36,1.33,6,6,0,0,1-1.76.76,7.54,7.54,0,0,1-1.38.21V17l.84.21a13.14,13.14,0,0,1,1.46.46,5.85,5.85,0,0,1,1.36.72,3.61,3.61,0,0,1,1,1.1A3,3,0,0,1,22.05,21,3.47,3.47,0,0,1,21.51,23Z"/></g></svg>