<svg xmlns="http://www.w3.org/2000/svg" viewBox="0 0 32 32"><defs><style>.cls-1{fill:#001837;}</style></defs><title>Dialpad</title><g id="Icon"><path class="cls-1" d="M6,10a4,4,0,1,1,4-4A4,4,0,0,1,6,10ZM6,4A2,2,0,1,0,8,6,2,2,0,0,0,6,4Z"/><path class="cls-1" d="M16,10a4,4,0,1,1,4-4A4,4,0,0,1,16,10Zm0-6a2,2,0,1,0,2,2A2,2,0,0,0,16,4Z"/><path class="cls-1" d="M26,10a4,4,0,1,1,4-4A4,4,0,0,1,26,10Zm0-6a2,2,0,1,0,2,2A2,2,0,0,0,26,4Z"/><path class="cls-1" d="M6,20a4,4,0,1,1,4-4A4,4,0,0,1,6,20Zm0-6a2,2,0,1,0,2,2A2,2,0,0,0,6,14Z"/><path class="cls-1" d="M16,20a4,4,0,1,1,4-4A4,4,0,0,1,16,20Zm0-6a2,2,0,1,0,2,2A2,2,0,0,0,16,14Z"/><path class="cls-1" d="M26,20a4,4,0,1,1,4-4A4,4,0,0,1,26,20Zm0-6a2,2,0,1,0,2,2A2,2,0,0,0,26,14Z"/><path class="cls-1" d="M6,30a4,4,0,1,1,4-4A4,4,0,0,1,6,30Zm0-6a2,2,0,1,0,2,2A2,2,0,0,0,6,24Z"/><path class="cls-1" d="M16,30a4,4,0,1,1,4-4A4,4,0,0,1,16,30Zm0-6a2,2,0,1,0,2,2A2,2,0,0,0,16,24Z"/><path class="cls-1" d="M26,30a4,4,0,1,1,4-4A4,4,0,0,1,26,30Zm0-6a2,2,0,1,0,2,2A2,2,0,0,0,26,24Z"/></g></svg>