<svg xmlns="http://www.w3.org/2000/svg" viewBox="0 0 32 32"><defs><style>.cls-1{fill:#001837;}</style></defs><title>Experience</title><g id="Icon"><path class="cls-1" d="M20.55,22a1,1,0,0,1-.47-.11L16,19.74l-4.08,2.15a1,1,0,0,1-1.45-1.05l.78-4.55-3.3-3.22a1,1,0,0,1,.55-1.71l4.57-.66,2-4.14a1,1,0,0,1,1.79,0l2,4.14,4.57.66a1,1,0,0,1,.55,1.71l-3.3,3.22.78,4.55a1,1,0,0,1-1,1.17ZM16,17.61a1,1,0,0,1,.47.11l2.76,1.45-.53-3.07a1,1,0,0,1,.29-.89L21.21,13l-3.08-.45a1,1,0,0,1-.75-.55L16,9.26l-1.38,2.79a1,1,0,0,1-.75.55L10.79,13,13,15.22a1,1,0,0,1,.29.89l-.53,3.07,2.76-1.45A1,1,0,0,1,16,17.61Z"/><path class="cls-1" d="M30,30.35,16,26,2,30.35V2H30ZM16,24l12,3.69V4H4V27.65Z"/></g></svg>