<svg xmlns="http://www.w3.org/2000/svg" viewBox="0 0 32 32"><defs><style>.\37 2f2d0a4-5a54-4717-a837-c5e1f0f171c9{fill:#231f20;}</style></defs><title>Experience.small copy</title><g id="eefb5dd7-b111-49c9-94af-b4664b22dabc" data-name="Icon"><path class="72f2d0a4-5a54-4717-a837-c5e1f0f171c9" d="M24,29.36a1,1,0,0,1-.58-.19L16,23.76,8.55,29.17a1,1,0,0,1-1.17,0A1,1,0,0,1,7,28.05L9.86,19.3,2.41,13.89A1,1,0,0,1,3,12.08h9.2l2.85-8.75a1,1,0,0,1,1.9,0l2.85,8.75H29a1,1,0,0,1,.59,1.81L22.14,19.3,25,28.05a1,1,0,0,1-.37,1.12A1,1,0,0,1,24,29.36Zm-8-7.83a1,1,0,0,1,.59.19l5.54,4L20,19.23a1,1,0,0,1,.37-1.12l5.54-4H19.07a1,1,0,0,1-.95-.69L16,6.87l-2.12,6.52a1,1,0,0,1-1,.69H6.08l5.54,4A1,1,0,0,1,12,19.23L9.87,25.75l5.54-4A1,1,0,0,1,16,21.53Z"/></g></svg>