<svg xmlns="http://www.w3.org/2000/svg" viewBox="0 0 32 32"><defs><style>.\34 5c8bf85-c09d-403b-954f-0997cc323d0f{fill:#001837;}</style></defs><title>Gym.small copy 4</title><g id="183a2353-fed5-40ee-bd63-30f13601752d" data-name="Icon"><path class="45c8bf85-c09d-403b-954f-0997cc323d0f" d="M15.94,25C9.55,25,2.48,17,2.18,16.66L1.61,16l.57-.66C2.48,15,9.55,7,15.94,7s13.45,8,13.75,8.34l.57.66-.57.66C29.39,17,22.32,25,15.94,25ZM4.3,16c1.78,1.86,7.13,7,11.64,7s9.85-5.14,11.63-7c-1.78-1.86-7.13-7-11.63-7S6.08,14.14,4.3,16Z"/><path class="45c8bf85-c09d-403b-954f-0997cc323d0f" d="M16,21a5,5,0,1,1,5-5A5,5,0,0,1,16,21Zm0-8a3,3,0,1,0,3,3A3,3,0,0,0,16,13Z"/></g></svg>