<svg xmlns="http://www.w3.org/2000/svg" viewBox="0 0 32 32"><defs><style>.\33 06d1554-d6cd-459a-81ce-8214d755adfa{fill:#001837;}</style></defs><title>Gym.small copy 5</title><g id="bde0c3a6-ffc7-45bb-ac79-417ffd7c9af2" data-name="Icon"><path class="306d1554-d6cd-459a-81ce-8214d755adfa" d="M29.69,15.34C29.39,15,22.32,7,15.94,7a12.24,12.24,0,0,0-5.81,1.78L6.74,5.39,5.33,6.81,8.39,9.87a37.07,37.07,0,0,0-6.21,5.47L1.61,16l.57.66C2.48,17,9.55,25,15.94,25a12.24,12.24,0,0,0,5.8-1.78l3.39,3.39,1.41-1.42-3.06-3.06a37.07,37.07,0,0,0,6.21-5.47l.57-.66ZM15.94,23c-4.51,0-9.86-5.14-11.64-7a35,35,0,0,1,5.52-4.7l2,2A4.94,4.94,0,0,0,11,16a5,5,0,0,0,5,5,4.94,4.94,0,0,0,2.71-.81l1.56,1.56A9.59,9.59,0,0,1,15.94,23Zm2.74-5.67-4-4A3,3,0,0,1,16,13a3,3,0,0,1,3,3A3,3,0,0,1,18.68,17.33Zm-1.44,1.39A2.89,2.89,0,0,1,16,19a3,3,0,0,1-3-3,2.89,2.89,0,0,1,.28-1.24Zm4.81,2-1.91-1.91A5,5,0,0,0,21,16a5,5,0,0,0-5-5,5,5,0,0,0-2.79.86L11.6,10.25A9.63,9.63,0,0,1,15.94,9c4.5,0,9.85,5.14,11.63,7A35,35,0,0,1,22.05,20.7Z"/></g></svg>