<svg xmlns="http://www.w3.org/2000/svg" viewBox="0 0 32 32"><defs><style>.cls-1{fill:#001837;}</style></defs><title>Filters</title><g id="Icon"><path class="cls-1" d="M25,13.65V4H23v9.65a3.48,3.48,0,0,0,0,6.67V28h2V20.33a3.48,3.48,0,0,0,0-6.67Zm0,4.45a1.48,1.48,0,1,1,.5-1.11A1.49,1.49,0,0,1,25,18.1Z"/><path class="cls-1" d="M17,7.65V4H15V7.65a3.48,3.48,0,0,0,0,6.67V28h2V14.33a3.48,3.48,0,0,0,0-6.67Zm0,4.45a1.48,1.48,0,1,1,.5-1.11A1.49,1.49,0,0,1,17,12.1Z"/><path class="cls-1" d="M9,17.66V4H7V17.65a3.48,3.48,0,0,0,0,6.68V28H9V24.32a3.48,3.48,0,0,0,0-6.66Zm0,4.43A1.48,1.48,0,1,1,9.49,21,1.49,1.49,0,0,1,9,22.09Z"/></g></svg>