<svg xmlns="http://www.w3.org/2000/svg" viewBox="0 0 32 32"><defs><style>.cls-1{fill:#001837;}</style></defs><title>Location copy 3</title><g id="Additional_Icons"><path class="cls-1" d="M16,30.1l-.55-.36C14.9,29.38,2,20.84,2,12.57,2,8.49,4.07,5.3,7.4,4.24c3-1,6.25.12,8.64,2.84C18.64,4.39,22,3.36,25,4.4s5,4.22,5,8.17c0,8.27-12.9,16.81-13.45,17.17ZM9.59,5.9A5.2,5.2,0,0,0,8,6.15c-2.47.79-4,3.25-4,6.42C4,18.88,13.58,26,16,27.69c2.42-1.7,12-8.81,12-15.12,0-3.12-1.39-5.47-3.71-6.28-2.48-.87-5.36.28-7.51,3l-.83,1-.77-1.09A7.07,7.07,0,0,0,9.59,5.9Z"/></g></svg>
