<svg xmlns="http://www.w3.org/2000/svg" viewBox="0 0 32 32"><defs><style>.cls-1{fill:#001837;}</style></defs><title>Help</title><g id="Icon"><path class="cls-1" d="M16,4A12,12,0,1,1,4,16,12,12,0,0,1,16,4m0-2A14,14,0,1,0,30,16,14,14,0,0,0,16,2Z"/><path class="cls-1" d="M15,18.51v-.63a2.89,2.89,0,0,1,1.1-2.43l.75-.72a2,2,0,0,0,.77-1.48,1.47,1.47,0,0,0-1.56-1.53,1.71,1.71,0,0,0-1.7,1.73l-2-.18a3.69,3.69,0,0,1,3.88-3.36c1.91,0,3.55,1.12,3.55,3.21,0,1.42-.63,2-1.66,2.95-.87.77-1.1,1-1.1,2v.43Z"/><path class="cls-1" d="M16,20a1.3,1.3,0,0,1,1.33,1.27A1.33,1.33,0,1,1,16,20Z"/></g></svg>