<svg xmlns="http://www.w3.org/2000/svg" viewBox="0 0 32 32"><defs><style>.cls-1{fill:#001837;}</style></defs><title>Language</title><g id="Icon"><path class="cls-1" d="M30,16A14,14,0,1,0,16,30h0A14,14,0,0,0,30,16ZM12.26,19a17.3,17.3,0,0,1,0-6h7.48a17.3,17.3,0,0,1,0,6Zm7,2A19.35,19.35,0,0,1,16,27.46,19.35,19.35,0,0,1,12.71,21ZM4,16a11.94,11.94,0,0,1,.39-3h5.83a20.17,20.17,0,0,0,0,6H4.39A11.94,11.94,0,0,1,4,16Zm8.71-5A19.35,19.35,0,0,1,16,4.54,19.35,19.35,0,0,1,19.29,11Zm9.06,2h5.83a11.59,11.59,0,0,1,0,6H21.78a20.17,20.17,0,0,0,0-6Zm5.12-2H21.36a21.06,21.06,0,0,0-3.1-6.78A12,12,0,0,1,26.89,11ZM13.74,4.22A21.06,21.06,0,0,0,10.64,11H5.11A12,12,0,0,1,13.74,4.22ZM5.11,21h5.53a21.06,21.06,0,0,0,3.1,6.78A12,12,0,0,1,5.11,21Zm13.15,6.78A21.06,21.06,0,0,0,21.36,21h5.53A12,12,0,0,1,18.26,27.78Z"/></g></svg>