<svg xmlns="http://www.w3.org/2000/svg" viewBox="0 0 32 32"><defs><style>.cls-1{fill:#231f20;}</style></defs><title>Like</title><g id="Additional_Icons"><path class="cls-1" d="M26.05,12,18,12.06V4.58A2.81,2.81,0,0,0,15,2H13a1.89,1.89,0,0,0-2,1.69l-.71,5.13A2.9,2.9,0,0,1,8.71,11h0a5,5,0,0,0-.71.44V10H2V30H8V27.3A7.94,7.94,0,0,0,14,30h8.67a6,6,0,0,0,5.93-5.17L30,16.11v-.16A4,4,0,0,0,26.05,12ZM6,28H4V12H6V28Zm20.58-3.46a4,4,0,0,1-4,3.46H14a6,6,0,0,1-6-6V15.41a2.89,2.89,0,0,1,1.61-2.6A4.9,4.9,0,0,0,12.27,9.1L13,4h2c.55,0,1,.31,1,.58v7.47A1.94,1.94,0,0,0,17.94,14h8.11A2,2,0,0,1,28,15.88Z"/></g></svg>
