<svg xmlns="http://www.w3.org/2000/svg" viewBox="0 0 32 32"><defs><style>.cls-1{fill:#001837;}</style></defs><title>Money</title><g id="Icon"><path class="cls-1" d="M18.86,15.81a3.53,3.53,0,0,0-.94-.45q-.47-.14-.74-.19l-1.44-.38a5.24,5.24,0,0,1-.87-.29,1,1,0,0,1-.42-.32.86.86,0,0,1-.11-.46.9.9,0,0,1,.13-.51,1.15,1.15,0,0,1,.34-.33,1.35,1.35,0,0,1,.46-.19,2.47,2.47,0,0,1,.51-.05,3.51,3.51,0,0,1,.71.07,1.7,1.7,0,0,1,.58.23,1.18,1.18,0,0,1,.41.44,1.71,1.71,0,0,1,.18.71h2a3,3,0,0,0-.31-1.41,2.75,2.75,0,0,0-.84-1,3.57,3.57,0,0,0-1.22-.54l-.3-.05V9H15v2.09l-.4.08a3.56,3.56,0,0,0-1.14.54,2.84,2.84,0,0,0-.82.9,2.51,2.51,0,0,0-.31,1.28,2.25,2.25,0,0,0,.89,1.89,3.54,3.54,0,0,0,.9.5,9.28,9.28,0,0,0,1,.33l1,.27a6.5,6.5,0,0,1,.9.28,2,2,0,0,1,.65.4.84.84,0,0,1,.25.63.93.93,0,0,1-.19.6,1.31,1.31,0,0,1-.47.37,2.07,2.07,0,0,1-.6.18,4.13,4.13,0,0,1-.6,0,3.14,3.14,0,0,1-.8-.1,2,2,0,0,1-.67-.31,1.51,1.51,0,0,1-.46-.54,1.76,1.76,0,0,1-.17-.82H12a3.17,3.17,0,0,0,.32,1.53,3,3,0,0,0,.9,1.06,3.83,3.83,0,0,0,1.3.61c.16,0,.32.06.48.09V23h2V20.93a5,5,0,0,0,.76-.16A3.61,3.61,0,0,0,19,20.14a2.64,2.64,0,0,0,.75-1A2.93,2.93,0,0,0,20,17.95a2.35,2.35,0,0,0-.34-1.32A2.84,2.84,0,0,0,18.86,15.81Z"/><path class="cls-1" d="M16,2A14,14,0,1,0,30,16,14,14,0,0,0,16,2Zm0,26A12,12,0,1,1,28,16,12,12,0,0,1,16,28Z"/></g></svg>