<svg viewBox="0 0 32 32" version="1.1" xmlns="http://www.w3.org/2000/svg" xmlns:xlink="http://www.w3.org/1999/xlink">
    <g id="Icons" stroke="none" stroke-width="1" fill="none" fill-rule="evenodd">
        <g id="Artboard-4-Copy" fill="#001837">
            <path d="M21.9998,2.0001 L23.9998,2.0001 L23.9998,4.0001 L29.9998,4.0001 L29.9998,30.0001 L1.9998,30.0001 L1.9998,4.0001 L8.0008,4.0001 L8.0008,2.0001 L9.9998,2.0001 L9.9998,4.0001 L21.9998,4.0001 L21.9998,2.0001 Z M23.9998,8.0001 L21.9998,8.0001 L21.9998,6.0001 L9.9998,6.0001 L9.9998,8.0001 L8.0008,8.0001 L8.0008,6.0001 L3.9998,6.0001 L3.9998,10.0001 L27.9998,10.0001 L27.9998,6.0001 L23.9998,6.0001 L23.9998,8.0001 Z M20.9497,23.5356 L19.5357,24.9496 L15.9997,21.4136 L12.4647,24.9496 L11.0507,23.5356 L14.5857,19.9996 L11.0507,16.4646 L12.4647,15.0506 L15.9997,18.5856 L19.5357,15.0506 L20.9497,16.4646 L17.4137,19.9996 L20.9497,23.5356 Z M3.9998,28.0001 L27.9998,28.0001 L27.9998,12.0001 L3.9998,12.0001 L3.9998,28.0001 Z" id="Combined-Shape"></path>
        </g>
    </g>
</svg>
