<svg xmlns="http://www.w3.org/2000/svg" viewBox="0 0 32 32"><defs><style>.cls-1{fill:#001837;}</style></defs><title>Phone</title><g id="Icon"><path class="cls-1" d="M7.85,5.19l4,4L8.86,12.09c-.43.43,1.45,4.08,4.22,6.84,2.5,2.5,5.72,4.28,6.64,4.28a.29.29,0,0,0,.21-.06l2.95-2.95,4,4-2.37,2.37a4.26,4.26,0,0,1-3.11,1.12c-3.11,0-7.39-2.15-11.11-5.86C5,16.54,2.86,10.18,5.48,7.56L7.85,5.19m0-2.83L6.44,3.77,4.07,6.14C.56,9.65,2.6,17,8.81,23.19c4,4,8.78,6.45,12.52,6.45a6.23,6.23,0,0,0,4.53-1.71l2.37-2.37,1.41-1.41-1.41-1.41-4-4-1.41-1.41-1.41,1.41L19.25,21a19.17,19.17,0,0,1-4.77-3.46A19.16,19.16,0,0,1,11,12.75l2.19-2.19,1.41-1.41L13.22,7.72l-4-4L7.85,2.36Z"/></g></svg>