<svg viewBox="0 0 32 32" version="1.1" xmlns="http://www.w3.org/2000/svg" xmlns:xlink="http://www.w3.org/1999/xlink">
    <defs>
        <path d="M30,23 L30,21 L30,17 C30,12.0088906 24.4325307,9 16,9 C7.56746933,9 2,12.0088906 2,17 L2,21 L2,23 L4,23 L9,23 L11,23 L11,21 L11,19 C11,17.6634728 13.3602908,17.0001353 16,17 C18.6397092,16.9939683 21,17.7755247 21,19 L21,21 L21,23 L23,23 L28,23 L30,23 Z M23,21 C23.0031914,20.3466662 23.0031914,19.3466662 23,18 C23.0047871,16 19.6050084,14.9946295 16,15 C12.3949916,15.0053705 9.0181909,16 9,18 L9,21 L4,21 L4,17 C4,13 9.82248361,11 16,11 C22.1775164,11 28,13 28,17 L28,21 L25,21 L23,21 Z" id="path-1"></path>
    </defs>
    <g id="PhoneDown" stroke="none" stroke-width="1" fill="none" fill-rule="evenodd">
        <mask id="mask-2" fill="white">
            <use xlink:href="#path-1"></use>
        </mask>
        <use fill="#000000" xlink:href="#path-1"></use>
    </g>
</svg>
