<svg id="Layer_1" data-name="Layer 1" xmlns="http://www.w3.org/2000/svg" viewBox="0 0 16 16"><defs><style>.cls-1{fill:#001837;}</style></defs><title>Artboard 1</title><g id="Symbols"><g id="Pin.small"><path id="Shape" class="cls-1" d="M9,.6,7.25,2.35a2,2,0,0,0-.6,1.4,1.82,1.82,0,0,0,.6,1.4l-1.4,1.4a3,3,0,0,0-2.1-.9,2.8,2.8,0,0,0-2.1.9l-.7.7L4.5,10.8.6,14.7l.7.7,3.9-3.9,3.55,3.55.7-.7a3,3,0,0,0,.9-2.1,2.8,2.8,0,0,0-.9-2.1l1.4-1.4a2,2,0,0,0,1.4.6,1.82,1.82,0,0,0,1.4-.6l1-1,.7-.7Zm3.9,7.45a1,1,0,0,1-1.4,0l-.7-.7L8,10.15l.7.7a2,2,0,0,1,.6,1.4,1.89,1.89,0,0,1-.6,1.4L2.3,7.35A1.92,1.92,0,0,1,3.7,6.8a2.05,2.05,0,0,1,1.4.55l.7.7L8.6,5.2,8,4.5A1,1,0,0,1,8,3.1L9,2.05,14,7Z"/></g></g></svg>