<svg id="d10d678a-e7b8-4b0f-840b-005385037efe" data-name="Grid" xmlns="http://www.w3.org/2000/svg" viewBox="0 0 32 32"><defs><style>.\38 e2d95df-68ed-4571-b3b4-e8e6eff09db3{fill:#001837;}</style></defs><title>Gym.small copy 6</title><g id="1e44f853-891a-4728-a1b2-203eea8a84e5" data-name="Symbols"><g id="1ef531bb-674e-41a0-807a-d5c8def25b57" data-name="Shape"><path id="9f3de90c-47db-4813-b07d-a0c284eee688" data-name="path-1" class="8e2d95df-68ed-4571-b3b4-e8e6eff09db3" d="M18.49,2,14.93,5.56a4.06,4.06,0,0,0-1.22,2.85,4,4,0,0,0,.61,2.14l-3.05,3.06A5.58,5.58,0,0,0,7.7,12.39a5.69,5.69,0,0,0-4.27,1.83L2,15.64l6.52,6.52L2.41,28.27l1.32,1.32,6.11-6.11L16.36,30l1.42-1.43a6.08,6.08,0,0,0,1.83-4.27,5.58,5.58,0,0,0-1.22-3.57l3.06-3.05a4,4,0,0,0,5-.61l2.85-2.85.71-.71ZM15.64,20.73l.72.72a4,4,0,0,1,1.22,2.85,3.71,3.71,0,0,1-1.22,2.85L4.75,15.64A4,4,0,0,1,7.6,14.42a3.86,3.86,0,0,1,2.85,1.22l.71.72,4.28-4.28,4.38,4.38Zm9.27-5.09a2,2,0,0,1-2.85,0l-.71-.71L17,10.55l-.72-.71a2,2,0,0,1,0-2.85l2.14-2.14,8.66,8.66Z"/></g></g></svg>