<svg xmlns="http://www.w3.org/2000/svg" viewBox="0 0 32 32"><defs><style>.cls-1{fill:#001837;}</style></defs><title>Rosco</title><g id="Icon"><path class="cls-1" d="M25,21a8.8,8.8,0,0,1-6.86-2.78C17.29,17.42,16.81,17,16,17s-1.29.42-2.14,1.22A8.8,8.8,0,0,1,7,21a5.27,5.27,0,0,1-5-5c0-2.42,1.31-5,5-5l.18,0A3.26,3.26,0,0,1,10,14a2.92,2.92,0,0,1-3,3,1,1,0,0,1,0-2,1,1,0,0,0,1-1c0-.69-.83-1-1.1-1A2.67,2.67,0,0,0,4,16a3.3,3.3,0,0,0,3,3,6.82,6.82,0,0,0,5.49-2.24A4.88,4.88,0,0,1,16,15a4.88,4.88,0,0,1,3.51,1.76A6.82,6.82,0,0,0,25,19a3.3,3.3,0,0,0,3-3,2.68,2.68,0,0,0-2.89-3c-.26.07-1.1.34-1.1,1a1,1,0,0,0,1,1,1,1,0,0,1,0,2,2.92,2.92,0,0,1-3-3,3.26,3.26,0,0,1,2.81-3L25,11c3.69,0,5,2.58,5,5A5.27,5.27,0,0,1,25,21Z"/></g></svg>