<svg xmlns="http://www.w3.org/2000/svg" viewBox="0 0 32 32"><defs><style>.cls-1{fill:#001837;}</style></defs><title>Settings</title><g id="Icon"><path class="cls-1" d="M16,21a5,5,0,1,1,5-5A5,5,0,0,1,16,21Zm0-8a3,3,0,1,0,3,3A3,3,0,0,0,16,13Z"/><path class="cls-1" d="M19.35,30H12.65A1.66,1.66,0,0,1,11,28.35V25.79a10.83,10.83,0,0,1-1-.57L7.81,26.5a1.66,1.66,0,0,1-2.26-.6L2.2,20.1a1.65,1.65,0,0,1,.61-2.26L5,16.57c0-.19,0-.38,0-.57s0-.37,0-.57L2.81,14.16a1.65,1.65,0,0,1-.6-2.26L5.55,6.1A1.66,1.66,0,0,1,7.81,5.5L10,6.78a10.94,10.94,0,0,1,1-.57V3.65A1.66,1.66,0,0,1,12.65,2h6.69A1.66,1.66,0,0,1,21,3.65V6.21a10.94,10.94,0,0,1,1,.57L24.19,5.5a1.66,1.66,0,0,1,2.26.6l3.34,5.8a1.65,1.65,0,0,1-.61,2.26L27,15.43c0,.19,0,.38,0,.57s0,.38,0,.57l2.21,1.27a1.66,1.66,0,0,1,.61,2.26L26.45,25.9a1.66,1.66,0,0,1-2.26.61L22,25.22a10.83,10.83,0,0,1-1,.57v2.55A1.66,1.66,0,0,1,19.35,30ZM13,28h6V24.51l.6-.26a9,9,0,0,0,1.73-1l.53-.39,3,1.75,3-5.2-3-1.75.07-.65a8.38,8.38,0,0,0,0-2l-.07-.65,3-1.75-3-5.2-3,1.75-.53-.39a9,9,0,0,0-1.73-1L19,7.49V4H13V7.49l-.6.26a9,9,0,0,0-1.73,1l-.53.39-3-1.75-3,5.2,3,1.75L7.06,15a8.38,8.38,0,0,0,0,2l.07.65-3,1.75,3,5.2,3-1.75.53.39a9,9,0,0,0,1.73,1l.6.26ZM3.94,12.9h0Z"/></g></svg>