<svg xmlns="http://www.w3.org/2000/svg" viewBox="0 0 32 32"><defs><style>.cls-1{fill:#001837;}</style></defs><title>Swap</title><g id="Icon"><path class="cls-1" d="M9.64,9.64A8.93,8.93,0,0,1,15,7.06v3.85l1.48.84L23,7.84V6.16L16.48,2.25,15,3.09V5A11,11,0,0,0,5.92,20.4l1.83-.8a9,9,0,0,1,1.89-10ZM17,4.77,20.72,7,17,9.23Z"/><path class="cls-1" d="M27,16a10.92,10.92,0,0,0-.92-4.4l-1.83.8A9,9,0,0,1,17,24.94V21.09l-1.48-.84L9,24.16v1.68l6.52,3.91L17,28.91V27A11,11,0,0,0,27,16ZM15,27.23,11.28,25,15,22.77Z"/></g></svg>