<svg xmlns="http://www.w3.org/2000/svg" viewBox="0 0 32 32"><defs><style>.cls-1{fill:#001837;}</style></defs><title>TalkWithAGuide</title><g id="Icon"><circle class="cls-1" cx="13" cy="10.5" r="1.5"/><circle class="cls-1" cx="18.02" cy="10.5" r="1.5"/><circle class="cls-1" cx="8" cy="10.5" r="1.5"/><path class="cls-1" d="M26,9H24V6a4,4,0,0,0-4-4H6A4,4,0,0,0,2,6v9a4,4,0,0,0,4,4H7v2.6a1.2,1.2,0,0,0,.66,1.07,1.18,1.18,0,0,0,.54.13A1.29,1.29,0,0,0,9,22.55l1.11-.9A4,4,0,0,0,14,25h4.66l4.44,3.58a1.21,1.21,0,0,0,1.91-1V25h1a4,4,0,0,0,4-4V13A4,4,0,0,0,26,9ZM10,19.13l-1,.81V17H6a2,2,0,0,1-2-2V6A2,2,0,0,1,6,4H20a2,2,0,0,1,2,2v9a2,2,0,0,1-2,2H12.65l-.65.52ZM28,21a2,2,0,0,1-2,2H23v2.94L19.35,23H14a2,2,0,0,1-2-2v-.92L13.35,19H20a4,4,0,0,0,4-4V11h2a2,2,0,0,1,2,2Z"/></g></svg>